<svg xmlns="http://www.w3.org/2000/svg" width="1121.019" height="192.756" viewBox="0 0 296.603 51" shape-rendering="geometricPrecision" image-rendering="optimizeQuality" fill-rule="evenodd"><path d="M61.187 0L41.74 51H37.28l-4.46-11.69 2.23-5.844 4.46 11.7L56.73 0h4.457zM0 0h4.458l17.22 45.156L38.9 0h4.46l-19.45 51H19.45L0 0zm8.915 0h4.46l8.305 21.777L29.984 0h4.458L21.68 33.466 8.915 0zm38.9 0h4.46L39.5 33.466l-2.23-5.844L47.814 0zm17.54 0H79.93v4.164H69.52v42.67h30.856V51h-35.02V0zm57.96 0h.267c2.178.014 4.342.31 6.44.87 2.128.57 4.195 1.425 6.144 2.55L134.1 7.018a21.38 21.38 0 0 0-5.153-2.128c-1.787-.48-3.643-.726-5.523-.726-5.892 0-11.227 2.39-15.086 6.25s-6.25 9.194-6.25 15.086 2.39 11.226 6.25 15.086 9.194 6.248 15.086 6.248c1.88 0 3.736-.245 5.523-.724 1.808-.485 3.542-1.2 5.153-2.128l2.066 3.596a25.46 25.46 0 0 1-6.144 2.551 25.49 25.49 0 0 1-6.597.871c-7.043 0-13.417-2.855-18.032-7.47s-7.468-11-7.468-18.03a25.42 25.42 0 0 1 7.468-18.031c4.59-4.59 10.923-7.44 17.922-7.468zM79.93 10.412h-4.165v30.175H96.21v-4.166H79.93v-26zm51.028 28.15c-1.158.668-2.38 1.174-3.633 1.5-1.273.34-2.585.517-3.902.517-4.167 0-7.94-1.69-10.668-4.42a15.04 15.04 0 0 1-4.419-10.667c0-4.166 1.69-7.937 4.42-10.668a15.04 15.04 0 0 1 10.668-4.419 15.08 15.08 0 0 1 3.902.516c1.253.336 2.476.842 3.633 1.51l-2.068 3.597a10.93 10.93 0 0 0-2.639-1.089c-.913-.244-1.864-.37-2.83-.37A10.89 10.89 0 0 0 112.501 25.5a10.89 10.89 0 0 0 3.199 7.724c1.977 1.975 4.708 3.198 7.724 3.198.965 0 1.915-.125 2.83-.37.932-.25 1.82-.614 2.64-1.087l2.068 3.597z" fill="#e41d38"/><path d="M179.436 4.34h4.048L177.6 21.72h-4.046l-3.65-12.54-3.7 12.54h-4.022l-5.86-17.38h4.22l3.774 13.26 3.75-13.26h3.85l3.8 13.26 3.724-13.26zm14.45 3.873c1.506 0 2.703.464 3.587 1.4s1.328 2.17 1.328 3.725v8.392h-3.823v-7.275c0-.843-.236-1.5-.708-2s-1.113-.732-1.924-.732c-.944.017-1.693.343-2.246.98s-.833 1.453-.833 2.446v6.58h-3.823V3.296h3.823v7.425c.927-1.64 2.466-2.475 4.618-2.508zm8.193.15h3.823v13.36h-3.823V8.362zm1.888-5.934c.6 0 1.112.2 1.5.596s.584.9.584 1.538-.195 1.143-.584 1.54-.9.597-1.5.597a1.96 1.96 0 0 1-1.48-.61c-.4-.407-.583-.915-.583-1.528 0-.628.194-1.14.583-1.538s.882-.596 1.48-.596zm13.88 18.548a6.26 6.26 0 0 1-1.651.683 7.33 7.33 0 0 1-1.826.235c-1.24 0-2.25-.356-3.03-1.067s-1.167-1.73-1.167-3.054V11.6h-1.862V8.958h1.862V5.283h3.8v3.675h3.626v2.656h-3.626v5.512c0 1.027.406 1.54 1.217 1.54.563 0 1.183-.165 1.862-.498l.794 2.807zm7.946-12.738c2.152 0 3.787.62 4.903 1.863s1.675 2.97 1.675 5.2l-.023.918h-9.585c.215.843.63 1.502 1.242 1.973s1.35.7 2.2.7c.628 0 1.233-.12 1.8-.36s1.1-.592 1.565-1.055l2 2.036a6.78 6.78 0 0 1-2.47 1.75c-.968.405-2.048.6-3.24.6-1.408 0-2.636-.28-3.7-.845a5.92 5.92 0 0 1-2.432-2.383c-.57-1.027-.856-2.2-.856-3.55 0-1.357.288-2.553.868-3.588a6.15 6.15 0 0 1 2.433-2.408c1.033-.572 2.235-.857 3.576-.857zm2.98 5.7c-.033-.877-.314-1.58-.845-2.1s-1.234-.793-2.1-.793c-.827 0-1.518.26-2.072.782s-.907 1.23-1.056 2.122h6.084zm6.754-9.6h2.383v15.22h7.597v2.16h-9.98V4.34zm20.805 17.38v-1.837c-.976 1.292-2.507 1.937-4.593 1.937-.9 0-1.7-.173-2.396-.52s-1.216-.828-1.6-1.44-.558-1.3-.558-2.06c0-1.175.435-2.107 1.304-2.794s2.08-1.037 3.637-1.055h4.172v-.62c0-.927-.286-1.642-.857-2.148s-1.403-.757-2.495-.757c-1.323 0-2.674.472-4.048 1.415l-.967-1.588c.943-.612 1.815-1.055 2.62-1.328s1.76-.4 2.868-.4c1.638 0 2.904.4 3.8 1.203s1.348 1.925 1.366 3.364l.024 8.64h-2.285zm-4.12-1.8c1.077 0 2-.262 2.743-.783s1.206-1.213 1.355-2.073v-1.316h-3.85c-1.043 0-1.817.158-2.322.473s-.757.8-.757 1.5.257 1.216.77 1.615 1.2.596 2.06.596zM270.04 8.513c1.224 0 2.316.28 3.276.842s1.706 1.35 2.235 2.36.794 2.168.794 3.477c0 1.3-.26 2.435-.78 3.438a5.69 5.69 0 0 1-2.2 2.334c-.942.554-2.04.832-3.265.832-1.1 0-2.086-.23-2.93-.695a5 5 0 0 1-1.986-1.986v2.606h-2.3V3.296h2.3v7.897c.48-.86 1.137-1.523 1.973-1.986s1.8-.695 2.893-.695zm-.447 11.27c.843 0 1.6-.198 2.272-.596a4.09 4.09 0 0 0 1.564-1.662c.37-.7.558-1.515.558-2.4a5.1 5.1 0 0 0-.57-2.383 4.22 4.22 0 0 0-1.564-1.665c-.66-.397-1.416-.596-2.26-.596s-1.602.198-2.272.596-1.196.953-1.576 1.665-.57 1.506-.57 2.383c0 .9.2 1.72.57 2.42s.905 1.256 1.576 1.652 1.427.596 2.272.596zm15.244-11.27c2.037 0 3.577.6 4.62 1.8s1.563 2.867 1.563 5.003l-.024.745h-10.38c.182 1.176.674 2.1 1.478 2.806s1.792 1.043 2.967 1.043c.778 0 1.502-.14 2.173-.423a5.23 5.23 0 0 0 1.75-1.191l1.266 1.316c-.644.694-1.423 1.233-2.334 1.613s-1.92.57-3.03.57c-1.3 0-2.437-.277-3.44-.832a5.83 5.83 0 0 1-2.334-2.347c-.554-1-.832-2.16-.832-3.45s.277-2.438.832-3.44 1.33-1.788 2.322-2.358 2.127-.856 3.4-.856zm4.098 5.76c-.065-1.2-.464-2.13-1.192-2.818s-1.7-1.03-2.88-1.03c-1.16 0-2.122.347-2.892 1.043s-1.23 1.63-1.378 2.805h8.343zm5.363-10.975h2.3V21.72h-2.3V3.296zM170.448 33.72c-.662-.695-1.432-1.238-2.3-1.627a6.63 6.63 0 0 0-2.707-.583c-1.224 0-2.35.298-3.377.894s-1.836 1.403-2.433 2.42-.894 2.14-.894 3.364c0 1.208.298 2.326.894 3.35s1.408 1.84 2.433 2.433 2.153.895 3.377.895c.9 0 1.805-.186 2.682-.56s1.655-.88 2.334-1.526l1.44 1.564a9.69 9.69 0 0 1-3.054 2.023 9.01 9.01 0 0 1-3.525.732c-1.655 0-3.17-.394-4.544-1.18s-2.458-1.86-3.252-3.216-1.193-2.855-1.193-4.493c0-1.623.402-3.108 1.204-4.458a8.7 8.7 0 0 1 3.291-3.19c1.4-.778 2.92-1.167 4.593-1.167a9.33 9.33 0 0 1 3.513.682 8.67 8.67 0 0 1 2.943 1.924l-1.415 1.714zm9.6 0c1.308 0 2.47.282 3.488.845s1.813 1.345 2.384 2.346.856 2.148.856 3.44-.286 2.44-.856 3.45a6.04 6.04 0 0 1-2.384 2.357c-1.018.564-2.18.846-3.488.846-1.325 0-2.495-.282-3.514-.846s-1.813-1.343-2.383-2.344-.858-2.156-.858-3.463c0-1.292.285-2.438.858-3.44a6.06 6.06 0 0 1 2.383-2.346c1.02-.563 2.2-.845 3.514-.845zm0 2c-.86 0-1.626.2-2.297.595s-1.192.948-1.564 1.653-.56 1.502-.56 2.395c0 .9.187 1.722.56 2.433s.894 1.263 1.564 1.652 1.436.583 2.297.583c.843 0 1.602-.194 2.272-.583s1.2-.94 1.564-1.652.56-1.522.56-2.433c0-.893-.187-1.693-.56-2.395a4.13 4.13 0 0 0-1.564-1.653c-.67-.396-1.43-.595-2.272-.595zm22.197-7.226v18.424h-2.3V44.32c-.498.877-1.163 1.55-2 2.024s-1.808.707-2.916.707c-1.242 0-2.337-.285-3.3-.856s-1.692-1.365-2.223-2.383-.794-2.182-.794-3.5c0-1.3.265-2.438.794-3.44s1.27-1.783 2.223-2.347 2.04-.843 3.264-.843c1.126 0 2.1.23 2.955.695a4.95 4.95 0 0 1 1.987 2.012v-7.897h2.3zM195.5 45.066c.862 0 1.627-.198 2.298-.597a4.18 4.18 0 0 0 1.577-1.663c.38-.7.57-1.514.57-2.408 0-.9-.2-1.722-.57-2.433a4.18 4.18 0 0 0-1.577-1.664c-.67-.397-1.435-.597-2.298-.597s-1.625.203-2.296.6a4.27 4.27 0 0 0-1.576 1.675c-.38.713-.57 1.514-.57 2.4s.2 1.696.57 2.408.906 1.266 1.576 1.663 1.437.597 2.296.597zm16.66-11.347c2.036 0 3.577.6 4.62 1.8s1.564 2.867 1.564 5.003l-.026.745H207.94c.182 1.175.675 2.1 1.476 2.805s1.793 1.043 2.967 1.043a5.56 5.56 0 0 0 2.174-.422c.67-.28 1.253-.68 1.75-1.2l1.266 1.315a6.63 6.63 0 0 1-2.333 1.614c-.912.38-1.92.57-3.03.57-1.292 0-2.438-.277-3.44-.83a5.84 5.84 0 0 1-2.334-2.347c-.555-1-.832-2.16-.832-3.452s.277-2.437.832-3.438a6.06 6.06 0 0 1 2.322-2.36c.992-.57 2.126-.856 3.4-.856zm4.098 5.76c-.067-1.192-.465-2.133-1.192-2.82s-1.688-1.03-2.88-1.03c-1.16 0-2.123.348-2.9 1.042s-1.23 1.63-1.38 2.807h8.343zm7.547-2.856c.43-.943 1.043-1.66 1.838-2.148s1.738-.74 2.83-.757v2.235c-1.34-.05-2.424.298-3.252 1.043s-1.3 1.746-1.416 3.005v6.927h-2.3V33.793h2.3v2.83zm14.352.075a7.91 7.91 0 0 0-1.8-.794c-.654-.2-1.28-.3-1.875-.3-.695 0-1.253.13-1.675.385s-.633.65-.633 1.18.235.93.707 1.203 1.188.55 2.147.83c.9.267 1.656.53 2.236.796a3.95 3.95 0 0 1 1.477 1.167c.407.512.6 1.2.6 2.035 0 1.243-.467 2.186-1.403 2.832S235.85 47 234.46 47a8.72 8.72 0 0 1-2.843-.472c-.92-.315-1.693-.762-2.32-1.34l.868-1.688c.547.496 1.222.893 2.024 1.2s1.585.446 2.345.446 1.375-.14 1.84-.422.694-.7.694-1.3c0-.596-.244-1.043-.732-1.34s-1.228-.596-2.222-.895c-.877-.247-1.593-.5-2.147-.757a3.81 3.81 0 0 1-1.416-1.13c-.39-.498-.584-1.14-.584-1.935 0-1.225.447-2.145 1.342-2.757s2-.918 3.35-.918c.794 0 1.576.1 2.347.335s1.436.526 2 .906l-.844 1.763z" fill="#fefefe" fill-rule="nonzero"/></svg>